<svg width="13" height="13" viewBox="0 0 13 13" fill="none" xmlns="http://www.w3.org/2000/svg">
<path d="M8.40917 2.46948L8.33845 2.39877L8.26774 2.46948L3.63619 7.10103C3.31965 7.41757 3.15394 7.80128 3.14143 8.24727C3.12888 8.6951 3.2823 9.08058 3.59918 9.39746C3.91509 9.71337 4.29564 9.87208 4.73562 9.86999C5.17554 9.8679 5.55705 9.70566 5.87537 9.38734L10.5305 4.73222C11.0486 4.21409 11.3075 3.58244 11.3053 2.84321C11.3032 2.10399 11.0405 1.47095 10.5192 0.949718C9.99799 0.428492 9.3648 0.165592 8.62525 0.163082L8.62491 0.263082L8.62525 0.163082C7.88568 0.16059 7.25384 0.419257 6.73568 0.937414L1.66808 6.00501C0.934262 6.73883 0.573782 7.62118 0.589928 8.64645C0.606057 9.67061 0.982161 10.5517 1.71522 11.2847C2.44861 12.0181 3.33364 12.3905 4.36506 12.3992C5.39713 12.408 6.28348 12.0434 7.01852 11.3083L12.0625 6.26429L12.1333 6.19357L12.0626 6.12286L11.5911 5.65146L11.5204 5.58075L11.4497 5.65146L6.39391 10.7073C5.83137 11.2698 5.15789 11.5459 4.36783 11.5383C3.57749 11.5307 2.89919 11.2431 2.32805 10.6719C1.76256 10.1064 1.47233 9.43303 1.45428 8.647C1.43624 7.86207 1.70315 7.1956 2.25734 6.64141L7.3485 1.55024C7.70614 1.19261 8.13014 1.01716 8.62582 1.02044C9.12177 1.02372 9.54767 1.20382 9.90836 1.56451C10.2691 1.92521 10.4482 2.35018 10.4499 2.84425L10.5499 2.8439L10.4499 2.84425C10.4516 3.33829 10.2754 3.76162 9.91766 4.11939L5.26254 8.77451C5.11575 8.9213 4.94206 8.99513 4.73641 8.99862C4.53219 9.00208 4.35912 8.93176 4.2116 8.78424C4.06487 8.63751 3.99698 8.46419 4.00511 8.25785L4.00511 8.25784C4.01336 8.04852 4.09013 7.87274 4.23723 7.72564L8.88057 3.0823L8.95128 3.01159L8.88057 2.94088L8.40917 2.46948Z" fill="#376EFF" stroke="#376EFF" stroke-width="0.2"/>
</svg>
