<svg width="12" height="13" viewBox="0 0 12 13" fill="none" xmlns="http://www.w3.org/2000/svg">
<path d="M6 2.40625C4.96165 2.40625 3.94662 2.71416 3.08326 3.29103C2.2199 3.86791 1.54699 4.68785 1.14963 5.64716C0.752275 6.60647 0.648307 7.66207 0.85088 8.68047C1.05345 9.69887 1.55347 10.6343 2.28769 11.3686C3.02192 12.1028 3.95738 12.6028 4.97578 12.8054C5.99418 13.0079 7.04978 12.904 8.00909 12.5066C8.9684 12.1093 9.78834 11.4364 10.3652 10.573C10.9421 9.70964 11.25 8.6946 11.25 7.65625C11.2484 6.26435 10.6948 4.92992 9.71056 3.9457C8.72633 2.96148 7.3919 2.40784 6 2.40625ZM6 11.5938C5.22124 11.5938 4.45996 11.3628 3.81244 10.9302C3.16493 10.4975 2.66025 9.88255 2.36223 9.16307C2.06421 8.44358 1.98623 7.65188 2.13816 6.88808C2.29009 6.12428 2.6651 5.42269 3.21577 4.87202C3.76644 4.32135 4.46803 3.94634 5.23183 3.79441C5.99563 3.64248 6.78733 3.72045 7.50682 4.01847C8.2263 4.31649 8.84126 4.82117 9.27391 5.46869C9.70657 6.11621 9.9375 6.87749 9.9375 7.65625C9.93634 8.70018 9.52113 9.70103 8.78296 10.4392C8.04478 11.1774 7.04394 11.5926 6 11.5938ZM7.99555 5.44195C8.05673 5.50292 8.10527 5.57537 8.13839 5.65513C8.17152 5.7349 8.18857 5.82043 8.18857 5.9068C8.18857 5.99317 8.17152 6.07869 8.13839 6.15846C8.10527 6.23823 8.05673 6.31067 7.99555 6.37164L6.4643 7.90289C6.34102 8.02617 6.17381 8.09543 5.99946 8.09543C5.82511 8.09543 5.6579 8.02617 5.53461 7.90289C5.41133 7.77961 5.34207 7.6124 5.34207 7.43805C5.34207 7.2637 5.41133 7.09649 5.53461 6.9732L7.06586 5.44195C7.12683 5.38077 7.19928 5.33223 7.27904 5.29911C7.35881 5.26599 7.44433 5.24894 7.53071 5.24894C7.61708 5.24894 7.7026 5.26599 7.78237 5.29911C7.86214 5.33223 7.93458 5.38077 7.99555 5.44195ZM4.03125 0.875C4.03125 0.700952 4.10039 0.534032 4.22346 0.410961C4.34653 0.28789 4.51345 0.21875 4.6875 0.21875H7.3125C7.48655 0.21875 7.65347 0.28789 7.77654 0.410961C7.89961 0.534032 7.96875 0.700952 7.96875 0.875C7.96875 1.04905 7.89961 1.21597 7.77654 1.33904C7.65347 1.46211 7.48655 1.53125 7.3125 1.53125H4.6875C4.51345 1.53125 4.34653 1.46211 4.22346 1.33904C4.10039 1.21597 4.03125 1.04905 4.03125 0.875Z" fill="#FF4B4B"/>
</svg>
