<svg width="24" height="24" viewBox="0 0 24 24" fill="none" xmlns="http://www.w3.org/2000/svg">
<g clip-path="url(#clip0_0_3552)">
<path d="M2.9681 16.4775C2.87161 16.5051 2.76948 16.5065 2.67231 16.4813C2.57514 16.4562 2.48646 16.4055 2.41549 16.3345C2.34452 16.2635 2.29383 16.1749 2.26868 16.0777C2.24353 15.9805 2.24484 15.8784 2.27248 15.7819L3.07216 12.9816C2.29524 11.5562 2.05802 9.89862 2.40398 8.31256C2.74993 6.72651 3.65589 5.31826 4.95581 4.34591C6.25573 3.37356 7.86252 2.90225 9.48171 3.01837C11.1009 3.13448 12.624 3.83023 13.7719 4.97811C14.9198 6.12598 15.6155 7.64909 15.7316 9.26828C15.8477 10.8875 15.3764 12.4943 14.4041 13.7942C13.4317 15.0941 12.0235 16.0001 10.4374 16.346C8.85138 16.692 7.19377 16.4547 5.76841 15.6778L2.9681 16.4775Z" stroke="#376EFF" stroke-linecap="round" stroke-linejoin="round"/>
<path d="M8.63086 16.4901C8.9558 17.4126 9.47719 18.2534 10.159 18.9546C10.8407 19.6558 11.6667 20.2006 12.5796 20.5513C13.4926 20.902 14.4708 21.0503 15.4467 20.9859C16.4226 20.9215 17.3729 20.6459 18.2318 20.1782L21.0321 20.9779C21.1286 21.0056 21.2307 21.0069 21.3279 20.9817C21.4251 20.9566 21.5137 20.9059 21.5847 20.8349C21.6557 20.7639 21.7064 20.6753 21.7315 20.5781C21.7567 20.4809 21.7554 20.3788 21.7277 20.2823L20.928 17.482C21.4736 16.4813 21.757 15.3588 21.7516 14.2191C21.7463 13.0794 21.4525 11.9596 20.8975 10.9641C20.3426 9.9686 19.5446 9.12983 18.578 8.52598C17.6114 7.92212 16.5076 7.57286 15.3696 7.51074" stroke="#376EFF" stroke-linecap="round" stroke-linejoin="round"/>
</g>
<defs>
<clipPath id="clip0_0_3552">
<rect width="24" height="24" fill="white"/>
</clipPath>
</defs>
</svg>
