<svg width="13" height="13" viewBox="0 0 13 13" fill="none" xmlns="http://www.w3.org/2000/svg">
<path d="M12.6546 1.42484C12.6546 1.42484 12.6546 1.43031 12.6546 1.43304L9.47178 11.9298C9.4236 12.1002 9.32444 12.2519 9.18758 12.3644C9.05073 12.477 8.88274 12.5449 8.70615 12.5592C8.681 12.5614 8.65584 12.5625 8.63069 12.5625C8.4652 12.563 8.30302 12.5162 8.16329 12.4275C8.02356 12.3388 7.91211 12.2121 7.84209 12.0621L5.8892 7.93921C5.86992 7.89843 5.86372 7.85267 5.87146 7.80823C5.87919 7.76378 5.90048 7.72281 5.93241 7.69093L9.06381 4.55898C9.1424 4.47626 9.18556 4.36612 9.1841 4.25204C9.18264 4.13796 9.13667 4.02896 9.05599 3.94828C8.97532 3.86761 8.86632 3.82164 8.75223 3.82018C8.63815 3.81872 8.52801 3.86188 8.4453 3.94046L5.30897 7.07187C5.27709 7.1038 5.23612 7.12508 5.19167 7.13282C5.14723 7.14055 5.10147 7.13435 5.06069 7.11507L0.959124 5.17203C0.798039 5.09823 0.662476 4.97828 0.569602 4.82739C0.476728 4.67649 0.430721 4.50143 0.437405 4.32437C0.446313 4.14239 0.512195 3.96781 0.625739 3.82532C0.739282 3.68282 0.894742 3.57962 1.07014 3.53031L11.5669 0.347495H11.5751C11.7245 0.305506 11.8824 0.304034 12.0327 0.34323C12.1829 0.382425 12.3199 0.460876 12.4298 0.570535C12.5397 0.680193 12.6184 0.81711 12.6579 0.967239C12.6974 1.11737 12.6963 1.2753 12.6546 1.42484Z" fill="#2563EB"/>
</svg>
