<svg width="13" height="13" viewBox="0 0 13 13" fill="none" xmlns="http://www.w3.org/2000/svg">
<path d="M12.6547 1.42485C12.6547 1.42485 12.6547 1.43031 12.6547 1.43305L9.4719 11.9298C9.42373 12.1003 9.32456 12.2519 9.18771 12.3644C9.05085 12.477 8.88286 12.5449 8.70628 12.5592C8.68112 12.5614 8.65596 12.5625 8.63081 12.5625C8.46532 12.563 8.30314 12.5162 8.16341 12.4275C8.02368 12.3388 7.91223 12.2121 7.84221 12.0621L5.88932 7.93922C5.87004 7.89843 5.86385 7.85268 5.87158 7.80823C5.87931 7.76379 5.9006 7.72282 5.93253 7.69094L9.06393 4.55899C9.14252 4.47627 9.18568 4.36613 9.18422 4.25205C9.18276 4.13796 9.13679 4.02897 9.05612 3.94829C8.97544 3.86761 8.86644 3.82165 8.75236 3.82018C8.63827 3.81872 8.52813 3.86189 8.44542 3.94047L5.30909 7.07188C5.27721 7.1038 5.23624 7.12509 5.1918 7.13282C5.14735 7.14056 5.1016 7.13436 5.06081 7.11508L0.959246 5.17203C0.798161 5.09823 0.662598 4.97829 0.569724 4.82739C0.47685 4.6765 0.430843 4.50144 0.437527 4.32438C0.446435 4.1424 0.512317 3.96782 0.625861 3.82532C0.739404 3.68283 0.894864 3.57963 1.07026 3.53031L11.567 0.347502H11.5752C11.7246 0.305514 11.8826 0.304042 12.0328 0.343237C12.183 0.382433 12.3201 0.460884 12.4299 0.570542C12.5398 0.680201 12.6186 0.817118 12.6581 0.967247C12.6976 1.11738 12.6964 1.27531 12.6547 1.42485Z" fill="white"/>
</svg>
