<svg width="12" height="13" viewBox="0 0 12 13" fill="none" xmlns="http://www.w3.org/2000/svg">
<path d="M11.6769 5.4856L6.67688 0.7681C6.67443 0.765967 6.67213 0.76367 6.67 0.761225C6.48591 0.593808 6.24602 0.501038 5.99719 0.501038C5.74836 0.501038 5.50846 0.593808 5.32438 0.761225L5.3175 0.7681L0.323125 5.4856C0.221249 5.57928 0.139927 5.69309 0.0843072 5.81982C0.028687 5.94655 -2.10268e-05 6.08345 1.15549e-08 6.22185V12C1.15549e-08 12.2652 0.105357 12.5195 0.292893 12.7071C0.48043 12.8946 0.734784 13 1 13H4C4.26522 13 4.51957 12.8946 4.70711 12.7071C4.89464 12.5195 5 12.2652 5 12V8.99997H7V12C7 12.2652 7.10536 12.5195 7.29289 12.7071C7.48043 12.8946 7.73478 13 8 13H11C11.2652 13 11.5196 12.8946 11.7071 12.7071C11.8946 12.5195 12 12.2652 12 12V6.22185C12 6.08345 11.9713 5.94655 11.9157 5.81982C11.8601 5.69309 11.7788 5.57928 11.6769 5.4856ZM11 12H8V8.99997C8 8.73476 7.89464 8.4804 7.70711 8.29287C7.51957 8.10533 7.26522 7.99997 7 7.99997H5C4.73478 7.99997 4.48043 8.10533 4.29289 8.29287C4.10536 8.4804 4 8.73476 4 8.99997V12H1V6.22185L1.00688 6.2156L6 1.49997L10.9937 6.21435L11.0006 6.2206L11 12Z" fill="#2563EB"/>
</svg>
