<svg width="135" height="36" viewBox="0 0 135 36" fill="none" xmlns="http://www.w3.org/2000/svg">
<path d="M1 30.5V17.5C1 10.8726 6.37258 5.5 13 5.5C19.6274 5.5 25 10.8726 25 17.5C25 24.1274 19.6274 29.5 13 29.5H12" stroke="#2563EB" stroke-width="2"/>
<path d="M5 30.5V17.66C5 13.1534 8.58172 9.5 13 9.5C17.4183 9.5 21 13.1534 21 17.66C21 22.1666 17.4183 25.82 13 25.82H12" stroke="#2563EB" stroke-width="2"/>
<path d="M17.375 16.7188C17.375 16.9351 17.3109 17.1465 17.1907 17.3264C17.0705 17.5063 16.8997 17.6465 16.6998 17.7292C16.5 17.812 16.28 17.8337 16.0679 17.7915C15.8557 17.7493 15.6608 17.6451 15.5079 17.4921C15.3549 17.3392 15.2507 17.1443 15.2085 16.9321C15.1663 16.72 15.188 16.5 15.2708 16.3002C15.3535 16.1003 15.4937 15.9295 15.6736 15.8093C15.8535 15.6891 16.0649 15.625 16.2813 15.625C16.5713 15.625 16.8495 15.7402 17.0546 15.9454C17.2598 16.1505 17.375 16.4287 17.375 16.7188ZM10.8125 16.7188C10.8125 16.5024 10.7484 16.291 10.6282 16.1111C10.508 15.9312 10.3372 15.791 10.1373 15.7083C9.93745 15.6255 9.71754 15.6038 9.50537 15.646C9.2932 15.6882 9.09832 15.7924 8.94535 15.9454C8.79239 16.0983 8.68822 16.2932 8.64602 16.5054C8.60381 16.7175 8.62547 16.9375 8.70826 17.1373C8.79104 17.3372 8.93123 17.508 9.1111 17.6282C9.29096 17.7484 9.50243 17.8125 9.71875 17.8125C10.0088 17.8125 10.287 17.6973 10.4921 17.4921C10.6973 17.287 10.8125 17.0088 10.8125 16.7188ZM11.5938 15.9375C11.8101 15.9375 12.0215 15.8734 12.2014 15.7532C12.3813 15.633 12.5215 15.4622 12.6042 15.2623C12.687 15.0625 12.7087 14.8425 12.6665 14.6304C12.6243 14.4182 12.5201 14.2233 12.3671 14.0704C12.2142 13.9174 12.0193 13.8132 11.8071 13.771C11.595 13.7288 11.375 13.7505 11.1752 13.8333C10.9753 13.916 10.8045 14.0562 10.6843 14.2361C10.5641 14.416 10.5 14.6274 10.5 14.8438C10.5 15.1338 10.6152 15.412 10.8204 15.6171C11.0255 15.8223 11.3037 15.9375 11.5938 15.9375ZM14.4063 15.9375C14.6226 15.9375 14.834 15.8734 15.0139 15.7532C15.1938 15.633 15.334 15.4622 15.4167 15.2623C15.4995 15.0625 15.5212 14.8425 15.479 14.6304C15.4368 14.4182 15.3326 14.2233 15.1796 14.0704C15.0267 13.9174 14.8318 13.8132 14.6196 13.771C14.4075 13.7288 14.1875 13.7505 13.9877 13.8333C13.7878 13.916 13.617 14.0562 13.4968 14.2361C13.3766 14.416 13.3125 14.6274 13.3125 14.8438C13.3125 15.1338 13.4277 15.412 13.6329 15.6171C13.838 15.8223 14.1162 15.9375 14.4063 15.9375ZM15.3094 18.3148C15.1506 18.2273 15.0107 18.1093 14.8977 17.9676C14.7846 17.8259 14.7006 17.6633 14.6504 17.4891C14.5465 17.1317 14.3294 16.8178 14.0318 16.5944C13.7342 16.371 13.3721 16.2502 13 16.2502C12.6279 16.2502 12.2658 16.371 11.9682 16.5944C11.6706 16.8178 11.4535 17.1317 11.3496 17.4891C11.2492 17.8396 11.0139 18.136 10.6953 18.3133C10.3897 18.4787 10.1479 18.7412 10.0082 19.0595C9.86849 19.3777 9.83888 19.7334 9.92403 20.0703C10.0092 20.4073 10.2042 20.7062 10.4783 20.9199C10.7525 21.1335 11.09 21.2497 11.4375 21.25C11.6458 21.2506 11.852 21.209 12.0438 21.1277C12.6551 20.8756 13.3414 20.8756 13.9527 21.1277C14.323 21.2888 14.7413 21.3002 15.1198 21.1597C15.4984 21.0191 15.8078 20.7374 15.9832 20.3737C16.1587 20.01 16.1865 19.5925 16.0609 19.2088C15.9352 18.825 15.6659 18.5048 15.3094 18.3152V18.3148Z" fill="#2563EB"/>
<path d="M38.69 26.5C38.274 26.5 38.066 26.3353 38.066 26.006V25.902C38.066 25.694 38.2393 25.382 38.586 24.966C38.9327 24.5327 39.106 24.0993 39.106 23.666V10.874C39.106 10.4407 38.9327 10.016 38.586 9.6C38.2393 9.16667 38.066 8.846 38.066 8.638V8.534C38.066 8.20467 38.274 8.04 38.69 8.04H45.164C47.6773 8.04 49.688 8.54267 51.196 9.548C52.704 10.5533 53.458 12.1047 53.458 14.202C53.458 16.1607 52.782 17.7293 51.43 18.908C50.078 20.0693 48.2753 20.65 46.022 20.65H43.864V23.666C43.864 24.0993 44.0547 24.5327 44.436 24.966C44.8347 25.382 45.034 25.694 45.034 25.902V26.006C45.034 26.3353 44.826 26.5 44.41 26.5H38.69ZM45.06 18.83H46.022C46.8367 18.83 47.4607 18.492 47.894 17.816C48.3447 17.14 48.57 16.2993 48.57 15.294C48.57 13.682 48.2147 12.3733 47.504 11.368C46.8107 10.3453 46.0307 9.834 45.164 9.834H44.8C44.176 9.834 43.864 10.25 43.864 11.082V17.582C43.864 18.414 44.2627 18.83 45.06 18.83ZM63.7292 22.392C63.9199 22.2013 64.1279 22.1493 64.3532 22.236C64.5959 22.3053 64.7086 22.4787 64.6912 22.756C64.6566 23.6227 64.1539 24.5067 63.1832 25.408C62.2126 26.3093 60.9559 26.76 59.4132 26.76C57.5239 26.76 55.9812 26.1533 54.7852 24.94C53.5892 23.7267 52.9912 22.1407 52.9912 20.182C52.9912 18.31 53.6152 16.776 54.8632 15.58C56.1286 14.3667 57.6366 13.76 59.3872 13.76C60.9646 13.76 62.1866 14.124 63.0532 14.852C63.9199 15.58 64.3532 16.4033 64.3532 17.322C64.3532 18.05 64.0152 18.5873 63.3392 18.934L58.1652 21.846C58.8759 22.9727 59.8639 23.536 61.1292 23.536C61.6666 23.536 62.1692 23.432 62.6372 23.224C63.1226 22.9987 63.4866 22.7213 63.7292 22.392ZM58.9192 15.034C58.3992 15.034 57.9746 15.294 57.6452 15.814C57.3332 16.334 57.1772 16.984 57.1772 17.764C57.1772 18.804 57.3072 19.714 57.5672 20.494L59.9852 19.038C60.4359 18.726 60.6612 18.284 60.6612 17.712C60.6612 17.14 60.5139 16.5507 60.2192 15.944C59.9419 15.3373 59.5086 15.034 58.9192 15.034ZM70.4179 26.76C69.1006 26.76 68.0606 26.344 67.2979 25.512C66.5526 24.68 66.1799 23.4927 66.1799 21.95V15.788H65.1919C65.0186 15.788 64.8713 15.736 64.7499 15.632C64.6459 15.5107 64.5939 15.3633 64.5939 15.19V14.618C64.5939 14.2193 64.7933 14.02 65.1919 14.02H65.6859C66.4833 14.02 67.1679 13.786 67.7399 13.318C68.3119 12.8327 68.6846 12.1913 68.8579 11.394C68.9446 10.9433 69.1786 10.718 69.5599 10.718H70.1579C70.6259 10.718 70.8599 10.9433 70.8599 11.394V14.02H73.5379C73.7113 14.02 73.8499 14.0807 73.9539 14.202C74.0753 14.306 74.1359 14.4447 74.1359 14.618V15.19C74.1359 15.3633 74.0753 15.5107 73.9539 15.632C73.8499 15.736 73.7113 15.788 73.5379 15.788H70.8599V22.028C70.8599 22.4613 70.9726 22.808 71.1979 23.068C71.4233 23.3107 71.7006 23.432 72.0299 23.432C72.7753 23.432 73.3473 23.1113 73.7459 22.47C73.8673 22.314 74.0059 22.2273 74.1619 22.21C74.3179 22.1753 74.4479 22.2013 74.5519 22.288C74.6733 22.3747 74.7339 22.496 74.7339 22.652C74.7339 23.744 74.3439 24.706 73.5639 25.538C72.8013 26.3527 71.7526 26.76 70.4179 26.76ZM75.8602 18.934C75.4789 18.934 75.2882 18.7173 75.2882 18.284V17.296C75.2882 16.8627 75.4789 16.646 75.8602 16.646H84.2583C84.6569 16.646 84.8563 16.8627 84.8563 17.296V18.284C84.8563 18.7173 84.6569 18.934 84.2583 18.934H75.8602ZM92.5246 26.76C90.5486 26.76 88.928 26.1187 87.6626 24.836C86.3973 23.536 85.7646 22.002 85.7646 20.234C85.7646 18.2753 86.406 16.7153 87.6886 15.554C88.9713 14.3753 90.5313 13.7773 92.3686 13.76C93.9113 13.7427 95.22 14.098 96.2946 14.826C97.3693 15.5367 97.9066 16.464 97.9066 17.608C97.9066 18.0413 97.7506 18.4053 97.4386 18.7C97.144 18.9947 96.6673 19.1333 96.0086 19.116C95.4193 19.0813 94.908 18.8473 94.4746 18.414C94.0586 17.9807 93.7553 17.5127 93.5646 17.01C93.374 16.5073 93.114 16.0567 92.7846 15.658C92.4553 15.242 92.0826 15.034 91.6666 15.034C91.1293 15.0513 90.6873 15.3373 90.3406 15.892C90.0113 16.4467 89.8466 17.1313 89.8466 17.946C89.8466 19.6447 90.228 21.0053 90.9906 22.028C91.7706 23.0507 92.802 23.562 94.0846 23.562C95.246 23.562 96.208 23.0593 96.9706 22.054C97.144 21.846 97.352 21.7767 97.5946 21.846C97.8373 21.898 97.9586 22.0627 97.9586 22.34C97.924 23.5533 97.43 24.5933 96.4766 25.46C95.5233 26.3267 94.206 26.76 92.5246 26.76ZM110.694 23.666C110.746 24.082 110.841 24.42 110.98 24.68C111.136 24.9227 111.283 25.0787 111.422 25.148C111.578 25.2173 111.716 25.304 111.838 25.408C111.959 25.512 112.02 25.642 112.02 25.798C112.02 26.37 111.04 26.656 109.082 26.656C108.284 26.656 107.686 26.5607 107.288 26.37C106.906 26.1793 106.664 25.8587 106.56 25.408C105.901 26.3093 104.8 26.76 103.258 26.76C101.802 26.76 100.614 26.422 99.6957 25.746C98.7944 25.07 98.3437 24.0907 98.3437 22.808C98.3437 21.56 98.7944 20.5893 99.6957 19.896C100.597 19.1853 101.706 18.83 103.024 18.83C104.046 18.83 104.922 19.0467 105.65 19.48V19.402C105.476 17.686 105.277 16.5247 105.052 15.918C104.844 15.3113 104.428 15.008 103.804 15.008C103.405 15.008 103.084 15.19 102.842 15.554C102.599 15.918 102.417 16.3167 102.296 16.75C102.192 17.1833 101.984 17.582 101.672 17.946C101.36 18.31 100.944 18.492 100.424 18.492C99.8864 18.492 99.4444 18.336 99.0977 18.024C98.7684 17.712 98.6037 17.3047 98.6037 16.802C98.6037 15.7967 99.1064 15.0427 100.112 14.54C101.117 14.02 102.348 13.76 103.804 13.76C105.537 13.76 106.967 14.2367 108.094 15.19C109.238 16.126 109.914 17.4 110.122 19.012L110.694 23.666ZM104.688 25.434C105.086 25.434 105.407 25.2433 105.65 24.862C105.91 24.4807 106.04 24.0473 106.04 23.562L105.936 22.366C105.762 20.9273 105.225 20.208 104.324 20.208C103.925 20.208 103.604 20.3727 103.362 20.702C103.119 21.014 102.998 21.4387 102.998 21.976C102.998 22.9467 103.145 23.77 103.44 24.446C103.752 25.1047 104.168 25.434 104.688 25.434ZM120.594 13.76C121.339 13.76 121.929 14.0027 122.362 14.488C122.813 14.9733 123.038 15.5887 123.038 16.334C123.038 17.9633 122.371 18.778 121.036 18.778C120.499 18.778 120.091 18.6567 119.814 18.414C119.537 18.154 119.372 17.868 119.32 17.556C119.285 17.244 119.199 16.9667 119.06 16.724C118.921 16.464 118.713 16.334 118.436 16.334C117.795 16.334 117.474 17.166 117.474 18.83V23.666C117.474 24.0993 117.699 24.5327 118.15 24.966C118.618 25.382 118.852 25.694 118.852 25.902V26.006C118.852 26.3353 118.644 26.5 118.228 26.5H112.638C112.222 26.5 112.014 26.3353 112.014 26.006V25.902C112.014 25.694 112.187 25.382 112.534 24.966C112.881 24.5327 113.054 24.0993 113.054 23.666V18.492C113.054 18.1453 112.95 17.8507 112.742 17.608C112.534 17.3653 112.326 17.1573 112.118 16.984C111.91 16.8107 111.806 16.62 111.806 16.412V16.334C111.806 16.0393 112.005 15.788 112.404 15.58L116.07 13.864C116.417 13.7427 116.659 13.734 116.798 13.838C116.937 13.942 117.006 14.1413 117.006 14.436V16.334C117.595 14.618 118.791 13.76 120.594 13.76ZM133.418 22.392C133.609 22.2013 133.817 22.1493 134.042 22.236C134.285 22.3053 134.398 22.4787 134.38 22.756C134.346 23.6227 133.843 24.5067 132.872 25.408C131.902 26.3093 130.645 26.76 129.102 26.76C127.213 26.76 125.67 26.1533 124.474 24.94C123.278 23.7267 122.68 22.1407 122.68 20.182C122.68 18.31 123.304 16.776 124.552 15.58C125.818 14.3667 127.326 13.76 129.076 13.76C130.654 13.76 131.876 14.124 132.742 14.852C133.609 15.58 134.042 16.4033 134.042 17.322C134.042 18.05 133.704 18.5873 133.028 18.934L127.854 21.846C128.565 22.9727 129.553 23.536 130.818 23.536C131.356 23.536 131.858 23.432 132.326 23.224C132.812 22.9987 133.176 22.7213 133.418 22.392ZM128.608 15.034C128.088 15.034 127.664 15.294 127.334 15.814C127.022 16.334 126.866 16.984 126.866 17.764C126.866 18.804 126.996 19.714 127.256 20.494L129.674 19.038C130.125 18.726 130.35 18.284 130.35 17.712C130.35 17.14 130.203 16.5507 129.908 15.944C129.631 15.3373 129.198 15.034 128.608 15.034Z" fill="#2563EB"/>
</svg>
