<svg width="13" height="13" viewBox="0 0 13 13" fill="none" xmlns="http://www.w3.org/2000/svg">
<path d="M8.5 6C8.5 6.13261 8.44732 6.25979 8.35355 6.35355C8.25979 6.44732 8.13261 6.5 8 6.5H4C3.86739 6.5 3.74021 6.44732 3.64645 6.35355C3.55268 6.25979 3.5 6.13261 3.5 6C3.5 5.86739 3.55268 5.74021 3.64645 5.64645C3.74021 5.55268 3.86739 5.5 4 5.5H8C8.13261 5.5 8.25979 5.55268 8.35355 5.64645C8.44732 5.74021 8.5 5.86739 8.5 6ZM8 7.5H4C3.86739 7.5 3.74021 7.55268 3.64645 7.64645C3.55268 7.74021 3.5 7.86739 3.5 8C3.5 8.13261 3.55268 8.25979 3.64645 8.35355C3.74021 8.44732 3.86739 8.5 4 8.5H8C8.13261 8.5 8.25979 8.44732 8.35355 8.35355C8.44732 8.25979 8.5 8.13261 8.5 8C8.5 7.86739 8.44732 7.74021 8.35355 7.64645C8.25979 7.55268 8.13261 7.5 8 7.5ZM12.5 6.75C12.4982 8.40704 11.8391 9.9957 10.6674 11.1674C9.4957 12.3391 7.90704 12.9982 6.25 13H0.979375C0.71973 12.9997 0.470814 12.8964 0.287218 12.7128C0.103621 12.5292 0.000330758 12.2803 0 12.0206V6.75C2.47002e-08 5.0924 0.65848 3.50268 1.83058 2.33058C3.00269 1.15848 4.5924 0.5 6.25 0.5C7.9076 0.5 9.49732 1.15848 10.6694 2.33058C11.8415 3.50268 12.5 5.0924 12.5 6.75ZM11.5 6.75C11.5 5.35761 10.9469 4.02226 9.96231 3.03769C8.97775 2.05312 7.64239 1.5 6.25 1.5C4.85761 1.5 3.52226 2.05312 2.53769 3.03769C1.55312 4.02226 1 5.35761 1 6.75V12H6.25C7.64193 11.9985 8.97642 11.4449 9.96067 10.4607C10.9449 9.47642 11.4985 8.14193 11.5 6.75Z" fill="#2563EB"/>
</svg>
