<svg width="10" height="14" viewBox="0 0 10 14" fill="none" xmlns="http://www.w3.org/2000/svg">
<path d="M5.00001 8.45001C4.52223 8.45001 4.12223 8.27825 3.80001 7.93473C3.47779 7.59122 3.31668 7.17409 3.31668 6.68334V2.50001C3.31668 2.03704 3.48024 1.64353 3.80736 1.31946C4.13448 0.995382 4.5317 0.833344 4.99903 0.833344C5.46635 0.833344 5.8639 0.995382 6.19168 1.31946C6.51945 1.64353 6.68334 2.03704 6.68334 2.50001V6.68334C6.68334 7.17409 6.52223 7.59122 6.20001 7.93473C5.87779 8.27825 5.47779 8.45001 5.00001 8.45001ZM4.50001 13.5V11.2333C3.32223 11.1111 2.33334 10.6167 1.53334 9.75001C0.733343 8.88334 0.333344 7.86112 0.333344 6.68334H1.33334C1.33334 7.69446 1.6905 8.54446 2.40481 9.23334C3.11912 9.92223 3.98301 10.2667 4.99648 10.2667C6.00994 10.2667 6.87501 9.92223 7.59168 9.23334C8.30834 8.54446 8.66668 7.69446 8.66668 6.68334H9.66668C9.66668 7.86112 9.26668 8.88334 8.46668 9.75001C7.66668 10.6167 6.67779 11.1111 5.50001 11.2333V13.5H4.50001ZM5.00001 7.45001C5.20001 7.45001 5.3639 7.37501 5.49168 7.22501C5.61945 7.07501 5.68334 6.89445 5.68334 6.68334V2.50001C5.68334 2.31112 5.61785 2.15279 5.48688 2.02501C5.35591 1.89723 5.19362 1.83334 5.00001 1.83334C4.8064 1.83334 4.64411 1.89723 4.51314 2.02501C4.38217 2.15279 4.31668 2.31112 4.31668 2.50001V6.68334C4.31668 6.89445 4.38057 7.07501 4.50834 7.22501C4.63612 7.37501 4.80001 7.45001 5.00001 7.45001Z" fill="#376EFF"/>
</svg>
