<svg width="12" height="14" viewBox="0 0 12 14" fill="none" xmlns="http://www.w3.org/2000/svg">
<path d="M11.8625 9.99625C11.5156 9.39875 11 7.70813 11 5.5C11 4.17392 10.4732 2.90215 9.53554 1.96447C8.59786 1.02678 7.32609 0.5 6.00001 0.5C4.67393 0.5 3.40216 1.02678 2.46447 1.96447C1.52679 2.90215 1.00001 4.17392 1.00001 5.5C1.00001 7.70875 0.483758 9.39875 0.136883 9.99625C0.0483021 10.1482 0.00134198 10.3207 0.000738316 10.4966C0.000134651 10.6724 0.0459089 10.8453 0.133445 10.9978C0.220981 11.1503 0.347183 11.277 0.499324 11.3652C0.651465 11.4534 0.824165 11.4999 1.00001 11.5H3.55063C3.66599 12.0645 3.97277 12.5718 4.41909 12.9361C4.86541 13.3004 5.42387 13.4994 6.00001 13.4994C6.57615 13.4994 7.13461 13.3004 7.58092 12.9361C8.02724 12.5718 8.33403 12.0645 8.44938 11.5H11C11.1758 11.4998 11.3484 11.4532 11.5005 11.365C11.6525 11.2768 11.7786 11.15 11.8661 10.9975C11.9536 10.845 11.9993 10.6722 11.9987 10.4964C11.998 10.3206 11.9511 10.1481 11.8625 9.99625ZM6.00001 12.5C5.6899 12.4999 5.38743 12.4037 5.13426 12.2246C4.88108 12.0455 4.68963 11.7924 4.58626 11.5H7.41376C7.31039 11.7924 7.11894 12.0455 6.86576 12.2246C6.61258 12.4037 6.31012 12.4999 6.00001 12.5ZM1.00001 10.5C1.48126 9.6725 2.00001 7.755 2.00001 5.5C2.00001 4.43913 2.42144 3.42172 3.17158 2.67157C3.92173 1.92143 4.93914 1.5 6.00001 1.5C7.06087 1.5 8.07829 1.92143 8.82843 2.67157C9.57858 3.42172 10 4.43913 10 5.5C10 7.75313 10.5175 9.67062 11 10.5H1.00001Z" fill="#2563EB"/>
</svg>
