<svg width="18" height="16" viewBox="0 0 18 16" fill="none" xmlns="http://www.w3.org/2000/svg">
<path d="M17.75 5.9375C17.75 6.37015 17.6217 6.79308 17.3813 7.15281C17.141 7.51254 16.7993 7.79292 16.3996 7.95849C15.9999 8.12405 15.5601 8.16737 15.1357 8.08297C14.7114 7.99856 14.3216 7.79022 14.0157 7.4843C13.7098 7.17837 13.5014 6.78859 13.417 6.36426C13.3326 5.93993 13.3759 5.50009 13.5415 5.10038C13.7071 4.70067 13.9875 4.35903 14.3472 4.11866C14.7069 3.8783 15.1299 3.75 15.5625 3.75C16.1427 3.75 16.6991 3.98047 17.1093 4.39071C17.5195 4.80094 17.75 5.35734 17.75 5.9375ZM4.625 5.9375C4.625 5.50485 4.49671 5.08192 4.25634 4.72219C4.01598 4.36246 3.67433 4.08208 3.27462 3.91651C2.87491 3.75095 2.43507 3.70763 2.01074 3.79203C1.58641 3.87644 1.19663 4.08478 0.890705 4.39071C0.584778 4.69663 0.376438 5.08641 0.292033 5.51074C0.207628 5.93507 0.250948 6.37491 0.416515 6.77462C0.582081 7.17433 0.862459 7.51597 1.22219 7.75634C1.58192 7.99671 2.00485 8.125 2.4375 8.125C3.01766 8.125 3.57406 7.89453 3.9843 7.4843C4.39453 7.07406 4.625 6.51766 4.625 5.9375ZM6.1875 4.375C6.62015 4.375 7.04308 4.24671 7.40281 4.00634C7.76254 3.76598 8.04292 3.42433 8.20849 3.02462C8.37405 2.62491 8.41737 2.18507 8.33297 1.76074C8.24856 1.33641 8.04022 0.946632 7.7343 0.640705C7.42837 0.334778 7.03859 0.126438 6.61426 0.0420332C6.18993 -0.042372 5.75009 0.000947807 5.35038 0.166515C4.95067 0.332081 4.60903 0.612459 4.36866 0.972191C4.1283 1.33192 4 1.75485 4 2.1875C4 2.76766 4.23047 3.32406 4.64071 3.7343C5.05094 4.14453 5.60734 4.375 6.1875 4.375ZM11.8125 4.375C12.2451 4.375 12.6681 4.24671 13.0278 4.00634C13.3875 3.76598 13.6679 3.42433 13.8335 3.02462C13.9991 2.62491 14.0424 2.18507 13.958 1.76074C13.8736 1.33641 13.6652 0.946632 13.3593 0.640705C13.0534 0.334778 12.6636 0.126438 12.2393 0.0420332C11.8149 -0.042372 11.3751 0.000947807 10.9754 0.166515C10.5757 0.332081 10.234 0.612459 9.99366 0.972191C9.7533 1.33192 9.625 1.75485 9.625 2.1875C9.625 2.76766 9.85547 3.32406 10.2657 3.7343C10.6759 4.14453 11.2323 4.375 11.8125 4.375ZM13.6188 9.12969C13.3013 8.95455 13.0215 8.71853 12.7953 8.43514C12.5692 8.15174 12.4011 7.82654 12.3008 7.47813C12.093 6.76348 11.6588 6.13557 11.0636 5.68878C10.4684 5.24199 9.74425 5.00044 9 5.00044C8.25575 5.00044 7.5316 5.24199 6.93638 5.68878C6.34116 6.13557 5.90703 6.76348 5.69922 7.47813C5.49848 8.17919 5.02787 8.77202 4.39063 9.12656C3.77931 9.45735 3.29573 9.98249 3.01635 10.6189C2.73698 11.2554 2.67776 11.9668 2.84807 12.6407C3.01837 13.3146 3.40848 13.9124 3.9567 14.3397C4.50491 14.767 5.17993 14.9994 5.875 15C6.29153 15.0012 6.70399 14.918 7.0875 14.7555C8.31021 14.2512 9.68276 14.2512 10.9055 14.7555C11.6461 15.0776 12.4826 15.1004 13.2397 14.8193C13.9968 14.5382 14.6156 13.9749 14.9665 13.2475C15.3173 12.5201 15.373 11.6851 15.1217 10.9175C14.8705 10.15 14.3318 9.50957 13.6188 9.13047V9.12969Z" fill="#2563EB"/>
</svg>
