<svg width="14" height="13" viewBox="0 0 14 13" fill="none" xmlns="http://www.w3.org/2000/svg">
<path d="M12.25 3C11.9039 3 11.5655 3.10264 11.2778 3.29493C10.99 3.48722 10.7657 3.76053 10.6332 4.0803C10.5008 4.40008 10.4661 4.75194 10.5336 5.09141C10.6012 5.43088 10.7678 5.7427 11.0126 5.98744C11.2573 6.23218 11.5691 6.39885 11.9086 6.46637C12.2481 6.5339 12.5999 6.49924 12.9197 6.36679C13.2395 6.23434 13.5128 6.01003 13.7051 5.72225C13.8974 5.43446 14 5.09612 14 4.75C14 4.28587 13.8156 3.84075 13.4874 3.51256C13.1592 3.18438 12.7141 3 12.25 3ZM12.25 5.5C12.1017 5.5 11.9567 5.45601 11.8333 5.3736C11.71 5.29119 11.6139 5.17406 11.5571 5.03701C11.5003 4.89997 11.4855 4.74917 11.5144 4.60368C11.5434 4.4582 11.6148 4.32456 11.7197 4.21967C11.8246 4.11478 11.9582 4.04335 12.1037 4.01441C12.2492 3.98547 12.4 4.00033 12.537 4.05709C12.6741 4.11386 12.7912 4.20999 12.8736 4.33332C12.956 4.45666 13 4.60166 13 4.75C13 4.94891 12.921 5.13968 12.7803 5.28033C12.6397 5.42098 12.4489 5.5 12.25 5.5ZM3.5 4.75C3.5 4.40388 3.39737 4.06554 3.20507 3.77775C3.01278 3.48997 2.73947 3.26566 2.4197 3.13321C2.09993 3.00076 1.74806 2.9661 1.40859 3.03363C1.06913 3.10115 0.757306 3.26782 0.512564 3.51256C0.267822 3.75731 0.101151 4.06913 0.0336265 4.40859C-0.0338976 4.74806 0.000758246 5.09993 0.133212 5.4197C0.265665 5.73947 0.489967 6.01278 0.777753 6.20507C1.06554 6.39736 1.40388 6.5 1.75 6.5C2.21413 6.5 2.65925 6.31563 2.98744 5.98744C3.31563 5.65925 3.5 5.21413 3.5 4.75ZM1.75 5.5C1.60166 5.5 1.45666 5.45601 1.33332 5.3736C1.20999 5.29119 1.11386 5.17406 1.05709 5.03701C1.00033 4.89997 0.985473 4.74917 1.01441 4.60368C1.04335 4.4582 1.11478 4.32456 1.21967 4.21967C1.32456 4.11478 1.4582 4.04335 1.60368 4.01441C1.74917 3.98547 1.89997 4.00033 2.03701 4.05709C2.17406 4.11386 2.29119 4.20999 2.3736 4.33332C2.45601 4.45666 2.5 4.60166 2.5 4.75C2.5 4.94891 2.42098 5.13968 2.28033 5.28033C2.13968 5.42098 1.94891 5.5 1.75 5.5ZM4.75 3.5C5.09612 3.5 5.43446 3.39737 5.72225 3.20507C6.01004 3.01278 6.23434 2.73947 6.36679 2.4197C6.49924 2.09993 6.5339 1.74806 6.46638 1.40859C6.39885 1.06913 6.23218 0.757306 5.98744 0.512564C5.7427 0.267822 5.43088 0.101151 5.09141 0.0336265C4.75194 -0.0338976 4.40008 0.000758246 4.08031 0.133212C3.76053 0.265665 3.48722 0.489967 3.29493 0.777753C3.10264 1.06554 3 1.40388 3 1.75C3 2.21413 3.18438 2.65925 3.51256 2.98744C3.84075 3.31563 4.28587 3.5 4.75 3.5ZM4.75 1C4.89834 1 5.04334 1.04399 5.16668 1.1264C5.29002 1.20881 5.38615 1.32594 5.44291 1.46299C5.49968 1.60003 5.51453 1.75083 5.48559 1.89632C5.45665 2.0418 5.38522 2.17544 5.28033 2.28033C5.17544 2.38522 5.0418 2.45665 4.89632 2.48559C4.75083 2.51453 4.60003 2.49968 4.46299 2.44291C4.32594 2.38614 4.20881 2.29001 4.1264 2.16668C4.04399 2.04334 4 1.89834 4 1.75C4 1.55109 4.07902 1.36032 4.21967 1.21967C4.36032 1.07902 4.55109 1 4.75 1ZM9.25 3.5C9.59612 3.5 9.93446 3.39737 10.2222 3.20507C10.51 3.01278 10.7343 2.73947 10.8668 2.4197C10.9992 2.09993 11.0339 1.74806 10.9664 1.40859C10.8989 1.06913 10.7322 0.757306 10.4874 0.512564C10.2427 0.267822 9.93088 0.101151 9.59141 0.0336265C9.25194 -0.0338976 8.90008 0.000758246 8.58031 0.133212C8.26053 0.265665 7.98722 0.489967 7.79493 0.777753C7.60264 1.06554 7.5 1.40388 7.5 1.75C7.5 2.21413 7.68437 2.65925 8.01256 2.98744C8.34075 3.31563 8.78587 3.5 9.25 3.5ZM9.25 1C9.39834 1 9.54334 1.04399 9.66668 1.1264C9.79002 1.20881 9.88614 1.32594 9.94291 1.46299C9.99968 1.60003 10.0145 1.75083 9.98559 1.89632C9.95665 2.0418 9.88522 2.17544 9.78033 2.28033C9.67544 2.38522 9.5418 2.45665 9.39632 2.48559C9.25083 2.51453 9.10003 2.49968 8.96299 2.44291C8.82594 2.38614 8.70881 2.29001 8.6264 2.16668C8.54399 2.04334 8.5 1.89834 8.5 1.75C8.5 1.55109 8.57902 1.36032 8.71967 1.21967C8.86032 1.07902 9.05109 1 9.25 1ZM10.695 7.30375C10.441 7.16364 10.2172 6.97483 10.0363 6.74811C9.85533 6.52139 9.72089 6.26123 9.64063 5.9825C9.47438 5.41078 9.12707 4.90846 8.6509 4.55102C8.17472 4.19359 7.5954 4.00035 7 4.00035C6.4046 4.00035 5.82528 4.19359 5.34911 4.55102C4.87293 4.90846 4.52562 5.41078 4.35938 5.9825C4.19878 6.54335 3.8223 7.01761 3.3125 7.30125C2.82345 7.56588 2.43658 7.98599 2.21308 8.49515C1.98958 9.00431 1.94221 9.57345 2.07845 10.1126C2.2147 10.6517 2.52679 11.13 2.96536 11.4718C3.40393 11.8136 3.94395 11.9995 4.5 12C4.83323 12.001 5.16319 11.9344 5.47 11.8044C6.44817 11.401 7.54621 11.401 8.52438 11.8044C9.11685 12.0621 9.78607 12.0804 10.3917 11.8554C10.9974 11.6305 11.4925 11.1799 11.7732 10.598C12.0539 10.016 12.0984 9.34805 11.8974 8.73403C11.6964 8.12002 11.2655 7.60766 10.695 7.30438V7.30375ZM9.5 11C9.29699 11.0002 9.09606 10.9591 8.90938 10.8794C7.68476 10.3735 6.30961 10.3735 5.085 10.8794C4.72913 11.0326 4.32776 11.0422 3.96498 10.9061C3.6022 10.77 3.30615 10.4988 3.13885 10.1494C2.97154 9.79988 2.94595 9.39922 3.06745 9.0313C3.18895 8.66338 3.4481 8.35674 3.79063 8.17563C4.1589 7.97224 4.48347 7.69826 4.74579 7.36935C5.0081 7.04043 5.20301 6.66304 5.31938 6.25875C5.42504 5.89475 5.64603 5.57489 5.94911 5.34727C6.25219 5.11966 6.62097 4.9966 7 4.9966C7.37903 4.9966 7.74782 5.11966 8.0509 5.34727C8.35397 5.57489 8.57496 5.89475 8.68063 6.25875C8.79737 6.66379 8.99288 7.04183 9.25596 7.37119C9.51904 7.70055 9.84452 7.97476 10.2138 8.17813C10.5086 8.33629 10.7422 8.58852 10.8772 8.89469C11.0123 9.20087 11.041 9.54341 10.959 9.86783C10.8769 10.1922 10.6888 10.4799 10.4244 10.6851C10.16 10.8902 9.83463 11.0011 9.5 11Z" fill="#2563EB"/>
</svg>
