<?xml version="1.0" encoding="UTF-8" standalone="no"?>
<svg
   width="20"
   height="21"
   viewBox="0 0 20 21"
   fill="none"
   version="1.1"
   id="svg1"
   sodipodi:docname="Vector(1).svg"
   inkscape:version="1.3.1 (9b9bdc1480, 2023-11-25, custom)"
   xmlns:inkscape="http://www.inkscape.org/namespaces/inkscape"
   xmlns:sodipodi="http://sodipodi.sourceforge.net/DTD/sodipodi-0.dtd"
   xmlns="http://www.w3.org/2000/svg"
   xmlns:svg="http://www.w3.org/2000/svg">
  <defs
     id="defs1" />
  <sodipodi:namedview
     id="namedview1"
     pagecolor="#ffffff"
     bordercolor="#000000"
     borderopacity="0.25"
     inkscape:showpageshadow="2"
     inkscape:pageopacity="0.0"
     inkscape:pagecheckerboard="0"
     inkscape:deskcolor="#d1d1d1"
     showgrid="false"
     inkscape:zoom="23.761905"
     inkscape:cx="10.016032"
     inkscape:cy="8.6062123"
     inkscape:window-width="1366"
     inkscape:window-height="697"
     inkscape:window-x="0"
     inkscape:window-y="0"
     inkscape:window-maximized="1"
     inkscape:current-layer="svg1" />
  <path
     d="M17.3228 10.3075C17.3228 10.4331 17.3228 10.5597 17.3228 10.6825L19 13.6872C18.6065 14.8569 17.9959 15.9418 17.2 16.885L13.825 16.8962C13.72 16.9628 13.6141 17.0256 13.5053 17.0837L11.8038 20.0715C10.6134 20.3069 9.38848 20.3069 8.19812 20.0715L6.50125 17.0865C6.39344 17.0256 6.28656 16.9628 6.18156 16.899L2.80656 16.884C2.00842 15.9417 1.39548 14.8571 1 13.6872L2.67719 10.6872C2.67719 10.5615 2.67719 10.435 2.67719 10.3122L1 7.31217C1.39346 6.14247 2.00414 5.05755 2.8 4.11436L6.175 4.10311C6.28 4.03654 6.38594 3.97373 6.49469 3.91561L8.19531 0.929669C9.38567 0.694333 10.6106 0.694333 11.8009 0.929669L13.4978 3.91467C13.6056 3.97561 13.7125 4.03842 13.8175 4.10217L17.1925 4.11717C17.9908 5.05887 18.604 6.14287 19 7.31217L17.3228 10.3075Z"
     stroke="#212427"
     stroke-linecap="round"
     stroke-linejoin="round"
     id="path1" />
  <ellipse
     style="fill:none;stroke:#212427;stroke-width:1.36604;stroke-dasharray:none;stroke-opacity:1"
     id="path2"
     cx="10"
     cy="10.500608"
     rx="3.0669804"
     ry="3.0669806" />
</svg>
