<svg width="14" height="13" viewBox="0 0 14 13" fill="none" xmlns="http://www.w3.org/2000/svg">
<path d="M9.27074 5.70512C9.51332 5.70512 9.71901 5.62022 9.88782 5.4504C10.0566 5.2806 10.141 5.07441 10.141 4.83182C10.141 4.58924 10.0561 4.38355 9.8863 4.21476C9.71649 4.04595 9.5103 3.96155 9.26772 3.96155C9.02514 3.96155 8.81946 4.04646 8.65065 4.21627C8.48184 4.38607 8.39744 4.59227 8.39744 4.83486C8.39744 5.07743 8.48234 5.28312 8.65216 5.45192C8.82197 5.62072 9.02816 5.70512 9.27074 5.70512ZM4.73229 5.70512C4.97487 5.70512 5.18055 5.62022 5.34935 5.4504C5.51817 5.2806 5.60257 5.07441 5.60257 4.83182C5.60257 4.58924 5.51767 4.38355 5.34785 4.21476C5.17804 4.04595 4.97185 3.96155 4.72927 3.96155C4.48669 3.96155 4.281 4.04646 4.11219 4.21627C3.94339 4.38607 3.85899 4.59227 3.85899 4.83486C3.85899 5.07743 3.94389 5.28312 4.1137 5.45192C4.28352 5.62072 4.48971 5.70512 4.73229 5.70512ZM7 9.96152C7.69573 9.96152 8.33162 9.76687 8.90769 9.37756C9.48376 8.98825 9.90854 8.47351 10.182 7.83334H9.30001C9.05556 8.24445 8.73056 8.56945 8.325 8.80834C7.91945 9.04723 7.47778 9.16667 7 9.16667C6.52223 9.16667 6.08056 9.04723 5.675 8.80834C5.26945 8.56945 4.94445 8.24445 4.7 7.83334H3.81797C4.09147 8.47351 4.51625 8.98825 5.09232 9.37756C5.66839 9.76687 6.30428 9.96152 7 9.96152ZM7.00112 12.8333C6.12517 12.8333 5.30181 12.6671 4.53105 12.3347C3.76029 12.0022 3.08983 11.551 2.51969 10.9812C1.94953 10.4113 1.49816 9.74109 1.16557 8.97067C0.832982 8.20026 0.666687 7.37708 0.666687 6.50112C0.666687 5.62517 0.832909 4.80181 1.16535 4.03105C1.4978 3.26029 1.94896 2.58983 2.51885 2.01969C3.08875 1.44953 3.75892 0.99816 4.52934 0.665571C5.29975 0.332982 6.12293 0.166687 6.99889 0.166687C7.87484 0.166687 8.6982 0.33291 9.46896 0.665354C10.2397 0.997799 10.9102 1.44897 11.4803 2.01885C12.0505 2.58875 12.5019 3.25892 12.8344 4.02934C13.167 4.79975 13.3333 5.62293 13.3333 6.49889C13.3333 7.37484 13.1671 8.1982 12.8347 8.96896C12.5022 9.73972 12.051 10.4102 11.4812 10.9803C10.9113 11.5505 10.2411 12.0019 9.47067 12.3344C8.70026 12.667 7.87708 12.8333 7.00112 12.8333ZM7 11.8333C8.48889 11.8333 9.75001 11.3167 10.7833 10.2833C11.8167 9.25001 12.3333 7.98889 12.3333 6.50001C12.3333 5.01112 11.8167 3.75 10.7833 2.71667C9.75001 1.68334 8.48889 1.16667 7 1.16667C5.51112 1.16667 4.25 1.68334 3.21667 2.71667C2.18334 3.75 1.66667 5.01112 1.66667 6.50001C1.66667 7.98889 2.18334 9.25001 3.21667 10.2833C4.25 11.3167 5.51112 11.8333 7 11.8333Z" fill="#376EFF"/>
</svg>
