<svg width="18" height="15" viewBox="0 0 18 15" fill="none" xmlns="http://www.w3.org/2000/svg">
<path d="M2.35874 1.94562C2.5141 1.38607 2.84855 0.892843 3.3109 0.541454C3.77325 0.190065 4.33802 -0.000124797 4.91874 6.14374e-08H13.0812C13.662 -0.000124797 14.2267 0.190065 14.6891 0.541454C15.1514 0.892843 15.4859 1.38607 15.6412 1.94562L17.6537 9.18813C18.115 10.8531 16.8631 12.5 15.135 12.5H2.86436C1.13624 12.5 -0.115636 10.8531 0.346864 9.18813L2.35874 1.94562ZM3.99999 13.75C3.83423 13.75 3.67526 13.8158 3.55805 13.9331C3.44084 14.0503 3.37499 14.2092 3.37499 14.375C3.37499 14.5408 3.44084 14.6997 3.55805 14.8169C3.67526 14.9342 3.83423 15 3.99999 15H14.0012C14.167 15 14.326 14.9342 14.4432 14.8169C14.5604 14.6997 14.6262 14.5408 14.6262 14.375C14.6262 14.2092 14.5604 14.0503 14.4432 13.9331C14.326 13.8158 14.167 13.75 14.0012 13.75H3.99999Z" fill="#2563EB"/>
</svg>
