<svg width="16" height="19" viewBox="0 0 16 19" fill="none" xmlns="http://www.w3.org/2000/svg">
<path d="M5.33342 8.83334C4.44936 8.83334 3.60151 8.48215 2.97639 7.85703C2.35127 7.23191 2.00008 6.38407 2.00008 5.50001V2.83334C2.00008 2.65653 2.07032 2.48696 2.19534 2.36194C2.32037 2.23691 2.48994 2.16668 2.66675 2.16668H3.33341C3.51023 2.16668 3.6798 2.09644 3.80482 1.97141C3.92984 1.84639 4.00008 1.67682 4.00008 1.50001C4.00008 1.3232 3.92984 1.15363 3.80482 1.02861C3.6798 0.903581 3.51023 0.833344 3.33341 0.833344H2.66675C2.13632 0.833344 1.62761 1.04406 1.25253 1.41913C0.877462 1.7942 0.666748 2.30291 0.666748 2.83334V5.50001C0.667605 6.25317 0.851263 6.99486 1.20195 7.6614C1.55263 8.32793 2.05986 8.89938 2.68008 9.32668C3.27597 9.85203 3.75922 10.4927 4.10067 11.21C4.44212 11.9272 4.63469 12.7063 4.66675 13.5C4.66675 14.7377 5.15841 15.9247 6.03358 16.7998C6.90875 17.675 8.09574 18.1667 9.33342 18.1667C10.5711 18.1667 11.7581 17.675 12.6332 16.7998C13.5084 15.9247 14.0001 14.7377 14.0001 13.5V12.74C14.6285 12.5777 15.1762 12.1919 15.5405 11.6547C15.9048 11.1175 16.0606 10.4659 15.9788 9.82201C15.897 9.17813 15.5832 8.58619 15.0962 8.15713C14.6092 7.72807 13.9825 7.49135 13.3334 7.49135C12.6844 7.49135 12.0576 7.72807 11.5706 8.15713C11.0836 8.58619 10.7698 9.17813 10.688 9.82201C10.6062 10.4659 10.7621 11.1175 11.1263 11.6547C11.4906 12.1919 12.0383 12.5777 12.6667 12.74V13.5C12.6667 14.3841 12.3156 15.2319 11.6904 15.857C11.0653 16.4822 10.2175 16.8333 9.33342 16.8333C8.44936 16.8333 7.60151 16.4822 6.97639 15.857C6.35127 15.2319 6.00008 14.3841 6.00008 13.5C6.03383 12.7053 6.22848 11.9256 6.57225 11.2083C6.91602 10.491 7.40176 9.85085 8.00008 9.32668C8.61783 8.8979 9.12247 8.3258 9.47079 7.65936C9.8191 6.99291 10.0007 6.25199 10.0001 5.50001V2.83334C10.0001 2.30291 9.78937 1.7942 9.4143 1.41913C9.03922 1.04406 8.53051 0.833344 8.00008 0.833344H7.33342C7.1566 0.833344 6.98703 0.903581 6.86201 1.02861C6.73699 1.15363 6.66675 1.3232 6.66675 1.50001C6.66675 1.67682 6.73699 1.84639 6.86201 1.97141C6.98703 2.09644 7.1566 2.16668 7.33342 2.16668H8.00008C8.17689 2.16668 8.34646 2.23691 8.47149 2.36194C8.59651 2.48696 8.66675 2.65653 8.66675 2.83334V5.50001C8.66675 5.93775 8.58053 6.3712 8.41301 6.77562C8.2455 7.18004 7.99997 7.5475 7.69044 7.85703C7.38091 8.16656 7.01344 8.41209 6.60903 8.57961C6.20461 8.74712 5.77115 8.83334 5.33342 8.83334ZM13.3334 11.5C12.9798 11.5 12.6407 11.3595 12.3906 11.1095C12.1406 10.8594 12.0001 10.5203 12.0001 10.1667C12.0001 9.81306 12.1406 9.47392 12.3906 9.22387C12.6407 8.97382 12.9798 8.83334 13.3334 8.83334C13.687 8.83334 14.0262 8.97382 14.2762 9.22387C14.5263 9.47392 14.6667 9.81306 14.6667 10.1667C14.6667 10.5203 14.5263 10.8594 14.2762 11.1095C14.0262 11.3595 13.687 11.5 13.3334 11.5Z" fill="#2563EB"/>
</svg>
