<svg width="16" height="12" viewBox="0 0 16 12" fill="none" xmlns="http://www.w3.org/2000/svg">
<path d="M15.24 3.76186C15.1272 3.66351 14.9877 3.6009 14.8393 3.58199C14.6908 3.56307 14.5401 3.58869 14.4062 3.65561L11.2681 5.2181L8.64812 0.866231C8.58077 0.75456 8.48571 0.662184 8.37216 0.598062C8.2586 0.533939 8.13041 0.500244 8 0.500244C7.86959 0.500244 7.74139 0.533939 7.62784 0.598062C7.51428 0.662184 7.41922 0.75456 7.35187 0.866231L4.73187 5.21998L1.595 3.65748C1.46146 3.59116 1.31131 3.56576 1.16339 3.58447C1.01547 3.60317 0.876369 3.66515 0.763543 3.76262C0.650717 3.86009 0.569193 3.98871 0.5292 4.13235C0.489208 4.27598 0.492529 4.42823 0.538747 4.56998L2.85125 11.655C2.8745 11.7262 2.91344 11.7912 2.96519 11.8453C3.01695 11.8994 3.0802 11.9412 3.15027 11.9676C3.22034 11.994 3.29545 12.0043 3.37004 11.9978C3.44463 11.9913 3.51681 11.9681 3.58125 11.93C3.59687 11.9206 5.195 11 8 11C10.805 11 12.4031 11.9206 12.4175 11.9294C12.482 11.9679 12.5543 11.9914 12.629 11.9981C12.7038 12.0049 12.7792 11.9947 12.8495 11.9683C12.9198 11.942 12.9832 11.9001 13.0352 11.8459C13.0871 11.7916 13.1261 11.7264 13.1494 11.655L15.4619 4.57186C15.5094 4.43006 15.5137 4.27733 15.4742 4.13309C15.4347 3.98885 15.3532 3.85963 15.24 3.76186ZM12.375 10.8019C11.625 10.4837 10.13 9.99998 8 9.99998C5.87 9.99998 4.375 10.4837 3.625 10.8019L1.66937 4.81248L4.48625 6.21686C4.65675 6.30094 4.85256 6.31813 5.03511 6.26503C5.21765 6.21193 5.37369 6.0924 5.4725 5.92998L8 1.72873L10.5275 5.92873C10.6264 6.09088 10.7823 6.21021 10.9647 6.26329C11.147 6.31637 11.3427 6.29936 11.5131 6.21561L14.3306 4.81248L12.375 10.8019ZM10.9919 8.80186C10.9715 8.91752 10.911 9.02231 10.8211 9.09785C10.7311 9.17339 10.6174 9.21486 10.5 9.21498C10.4707 9.21494 10.4414 9.21243 10.4125 9.20748C8.81543 8.93331 7.18332 8.93331 5.58625 9.20748C5.45563 9.23052 5.32121 9.20073 5.21255 9.12466C5.1039 9.04859 5.02991 8.93248 5.00687 8.80186C4.98383 8.67124 5.01362 8.53681 5.08969 8.42816C5.16576 8.31951 5.28188 8.24552 5.4125 8.22248C7.12454 7.92832 8.87421 7.92832 10.5862 8.22248C10.7166 8.24537 10.8326 8.31901 10.9087 8.42727C10.9849 8.53552 11.015 8.66955 10.9925 8.79998L10.9919 8.80186Z" fill="#2563EB"/>
</svg>
